# xmcd CD database file
#
# Track frame offsets:
#	150
#	17489
#	43124
#	74000
#	92435
#	106441
#	125188
#	139347
#	159528
#	177495
#
# Disc length: 2471 seconds
#
# Revision: 0
# Processed by: cddbd v1.5.2PL0 Copyright (c) Steve Scherf et al.
# Submitted via: CDex 1.51
#
DISCID=9009a50a
DTITLE=Bolt Upright - Hot Shot Blues
DYEAR=2007
DGENRE=Blues
TTITLE0=Hot Shot Blues
TTITLE1=Funky Broadway
TTITLE2=Five Long Years
TTITLE3=Love Me Two Times
TTITLE4=Empty Arms
TTITLE5=Oh Carol
TTITLE6=Dead Presidents
TTITLE7=Midnight Special
TTITLE8=Snatch It Back
TTITLE9=Wipe Out
EXTD=YEAR: 2007
EXTT0=
EXTT1=
EXTT2=
EXTT3=
EXTT4=
EXTT5=
EXTT6=
EXTT7=
EXTT8=
EXTT9=
PLAYORDER=
